<?xml version="1.0" standalone="no"?>
<!DOCTYPE svg PUBLIC "-//W3C//DTD SVG 20010904//EN"
 "http://www.w3.org/TR/2001/REC-SVG-20010904/DTD/svg10.dtd">
<svg version="1.0" xmlns="http://www.w3.org/2000/svg"
 width="994.000000pt" height="994.000000pt" viewBox="0 0 994.000000 994.000000"
 preserveAspectRatio="xMidYMid meet">
<metadata>
Created by potrace 1.14, written by Peter Selinger 2001-2017
</metadata>
<g transform="translate(0.000000,994.000000) scale(0.100000,-0.100000)"
fill="#000000" stroke="none">
<path d="M4866 9903 c-3 -3 -33 -7 -68 -9 -83 -4 -203 -13 -253 -19 -65 -8
-268 -35 -295 -39 -14 -3 -43 -7 -65 -11 -145 -21 -487 -101 -715 -167 -58
-17 -109 -31 -115 -32 -118 -25 -619 -212 -662 -247 -7 -6 -13 -9 -13 -6 0 3
-35 -11 -77 -32 -43 -21 -94 -45 -113 -53 -146 -64 -149 -66 -218 -126 -15
-13 -44 -32 -64 -43 -21 -11 -38 -23 -38 -27 -1 -4 -25 -23 -55 -42 -30 -19
-55 -40 -55 -45 0 -6 -8 -15 -19 -20 -10 -6 -43 -29 -72 -53 -30 -24 -67 -54
-84 -67 -24 -19 -211 -204 -436 -434 -19 -20 -70 -76 -113 -126 -42 -49 -84
-99 -94 -110 -9 -11 -34 -44 -56 -73 -21 -29 -47 -57 -57 -63 -11 -5 -17 -14
-14 -18 3 -5 -2 -11 -10 -15 -8 -3 -15 -12 -15 -20 0 -8 -9 -18 -21 -21 -11
-4 -18 -9 -15 -12 3 -4 1 -12 -5 -20 -6 -7 -8 -13 -4 -13 5 0 -4 -11 -20 -24
-15 -13 -25 -28 -21 -34 3 -6 -2 -13 -12 -16 -11 -4 -31 -29 -46 -56 -15 -28
-31 -50 -35 -50 -4 0 -14 -12 -22 -27 -8 -16 -24 -39 -36 -53 -13 -14 -23 -29
-23 -33 0 -5 -18 -34 -40 -64 -22 -31 -40 -62 -40 -68 0 -7 -7 -18 -15 -25 -9
-7 -13 -15 -11 -17 2 -3 -4 -14 -14 -26 -18 -20 -32 -46 -95 -167 -25 -47 -85
-179 -85 -185 0 -2 -14 -34 -31 -70 -32 -69 -69 -169 -72 -195 -1 -8 -4 -17
-8 -20 -5 -5 -107 -313 -113 -341 -2 -8 -6 -21 -9 -29 -3 -8 -11 -35 -17 -60
-6 -25 -31 -104 -55 -176 -25 -72 -46 -144 -48 -160 -2 -17 -6 -34 -9 -39 -6
-11 -45 -178 -50 -215 -2 -14 -7 -30 -10 -36 -4 -6 -10 -26 -12 -45 -8 -49
-11 -63 -18 -74 -4 -8 -15 -48 -23 -85 0 -3 -4 -21 -8 -40 -4 -19 -9 -46 -12
-60 -3 -14 -8 -52 -10 -85 -3 -33 -9 -85 -14 -115 -19 -112 2 -825 26 -863 3
-6 7 -49 8 -96 1 -47 5 -99 9 -116 12 -54 16 -79 22 -120 6 -53 34 -157 44
-170 6 -8 22 -112 22 -142 0 -5 4 -14 10 -20 6 -7 8 -13 4 -13 -3 0 -1 -12 5
-27 12 -30 14 -41 23 -98 4 -21 11 -44 17 -52 6 -7 9 -13 6 -13 -3 0 -1 -15 4
-32 6 -18 11 -37 13 -43 1 -5 11 -35 21 -65 11 -30 18 -58 17 -62 -1 -5 3 -8
9 -8 6 0 9 -7 6 -15 -4 -8 -2 -17 3 -20 6 -4 10 -14 10 -23 0 -17 91 -204 110
-227 5 -6 28 -47 51 -90 23 -44 59 -105 80 -137 21 -31 39 -62 39 -68 0 -6 8
-25 17 -43 9 -18 16 -35 15 -39 -1 -3 5 -12 13 -18 8 -7 15 -18 15 -25 0 -19
30 -74 48 -87 9 -7 28 -35 42 -63 14 -27 32 -57 40 -65 8 -8 21 -26 28 -40 11
-22 46 -75 69 -105 5 -5 14 -21 20 -35 15 -29 20 -38 95 -150 31 -47 69 -98
85 -115 16 -16 44 -50 63 -75 19 -25 37 -47 40 -50 3 -3 23 -27 45 -55 22 -27
43 -51 47 -53 4 -2 34 -31 65 -65 100 -106 207 -211 241 -237 18 -14 62 -53
99 -87 36 -35 69 -60 74 -57 5 3 9 1 9 -5 0 -5 21 -24 46 -42 25 -17 61 -46
80 -64 18 -18 35 -31 37 -29 2 2 12 -5 22 -16 10 -11 24 -20 31 -20 7 0 16 -9
19 -20 3 -11 11 -21 16 -21 5 -1 13 -2 18 -3 5 0 13 -5 18 -10 5 -5 3 -6 -4
-2 -29 16 -11 -4 20 -22 17 -11 41 -27 52 -36 39 -31 115 -79 385 -243 211
-128 507 -273 755 -370 22 -8 51 -20 65 -26 30 -13 27 -12 65 -21 17 -4 38
-11 47 -17 10 -5 22 -9 27 -9 5 0 22 -5 38 -12 15 -6 34 -12 42 -14 8 -1 36
-10 64 -19 46 -15 297 -81 342 -91 11 -2 85 -17 165 -33 80 -16 163 -32 185
-35 44 -6 119 -19 207 -36 31 -6 60 -10 65 -9 4 1 10 0 13 -1 32 -15 375 -22
480 -10 96 11 171 13 380 12 63 -1 142 1 175 3 134 9 208 16 214 19 3 2 47 9
96 15 50 6 101 13 115 16 14 3 39 8 55 11 17 2 59 11 95 19 36 8 79 18 95 21
45 8 228 66 241 75 6 5 28 15 50 23 21 7 73 29 114 49 41 19 86 38 100 42 14
5 41 18 60 30 19 12 53 29 75 37 22 9 76 33 120 54 44 21 82 39 85 39 17 3
236 120 355 188 264 152 492 310 700 485 11 9 38 32 60 51 136 114 281 254
405 390 52 58 102 112 110 121 8 8 46 54 85 100 38 47 75 90 81 95 6 6 35 42
65 80 29 39 59 75 66 80 17 15 83 104 83 113 0 7 57 91 70 102 3 3 21 37 40
75 19 39 37 72 40 75 13 13 220 423 220 435 0 3 16 39 36 82 39 84 114 273
145 368 10 33 22 67 25 75 3 8 5 16 5 17 0 2 7 22 15 45 9 24 18 54 20 67 3
13 9 31 13 40 5 9 12 34 16 56 5 22 10 45 11 50 21 70 45 167 49 193 2 18 6
36 9 40 2 4 7 25 10 47 3 22 11 63 16 90 6 28 12 64 14 80 3 17 7 47 10 68 3
20 8 52 10 70 3 17 7 52 11 77 36 258 42 881 11 1135 -2 17 -7 58 -11 93 -3
35 -8 73 -11 85 -2 12 -7 42 -10 67 -19 146 -88 465 -128 595 -1 6 -8 30 -15
55 -7 25 -20 65 -28 90 -16 52 -20 62 -23 72 -1 4 -13 38 -26 75 -14 37 -32
88 -41 113 -8 25 -19 49 -24 54 -5 6 -9 15 -9 22 0 7 -10 34 -22 61 -12 26
-22 51 -23 56 -2 4 -4 9 -5 12 -1 3 -3 8 -4 13 -15 58 -317 622 -338 630 -4 2
-8 10 -8 17 0 8 -6 20 -13 27 -7 7 -40 54 -73 103 -70 106 -158 226 -227 310
-27 33 -66 80 -86 105 -20 24 -63 74 -97 110 -34 36 -90 97 -125 136 -35 40
-88 93 -118 120 -29 26 -78 72 -110 102 -74 72 -250 219 -384 321 -132 100
-146 111 -166 134 -8 9 -21 17 -28 17 -7 0 -13 4 -13 9 0 5 -24 24 -52 42 -29
18 -56 38 -60 44 -4 5 -8 7 -8 3 0 -5 -9 1 -20 12 -11 11 -26 20 -33 20 -8 0
-22 9 -32 20 -10 11 -22 17 -26 14 -5 -3 -9 -1 -9 4 0 6 -12 13 -27 17 -16 3
-41 17 -58 29 -46 34 -171 96 -179 89 -3 -3 -6 -1 -6 5 0 7 -7 12 -15 12 -8 0
-15 4 -15 8 0 6 -40 27 -70 36 -3 1 -54 26 -115 56 -60 29 -112 54 -115 55 -3
0 -21 11 -40 23 -19 12 -43 22 -52 22 -10 0 -18 5 -18 11 0 5 -4 8 -9 4 -5 -3
-12 -1 -15 4 -4 5 -23 15 -44 22 -20 6 -43 17 -51 23 -8 6 -21 11 -30 11 -9 1
-27 7 -39 14 -13 7 -36 15 -50 17 -15 3 -63 17 -107 32 -44 15 -84 27 -90 27
-5 0 -16 4 -22 8 -7 5 -13 6 -13 3 0 -3 -12 -1 -27 5 -46 18 -203 55 -273 65
-19 2 -42 7 -50 9 -9 3 -51 10 -95 15 -44 6 -129 17 -190 25 -79 10 -212 14
-467 13 -196 0 -359 -2 -362 -5z"/>
</g>
</svg>
